<svg xmlns="http://www.w3.org/2000/svg" width="73" height="57" viewBox="0 0 73 57">
    <g fill="#F6A501" fill-rule="evenodd">
        <path d="M51.833 53H19.167c-.644 0-1.167.448-1.167 1v2c0 .552.523 1 1.167 1s1.166-.448 1.166-1v-1h31.5c.644 0 1.167-.448 1.167-1s-.523-1-1.167-1z"/>
        <path fill-rule="nonzero" d="M27 24.125c0 .483.523.875 1.167.875h4.666c.644 0 1.167-.392 1.167-.875v-5.25c0-.483-.523-.875-1.167-.875h-4.666c-.644 0-1.167.392-1.167.875v5.25zm2.333-4.375h2.334v3.5h-2.334v-3.5z"/>
        <path d="M16.714 11H1.286C.576 11 0 11.428 0 11.955v19.09c0 .527.576.955 1.286.955.71 0 1.285-.428 1.285-.955V12.91h14.143c.71 0 1.286-.428 1.286-.954 0-.527-.576-.955-1.286-.955z"/>
        <path fill-rule="nonzero" d="M60 46.125c0 .483.523.875 1.167.875h4.666c.644 0 1.167-.392 1.167-.875v-5.25c0-.483-.523-.875-1.167-.875h-4.666c-.644 0-1.167.392-1.167.875v5.25zm2.333-4.375h2.334v3.5h-2.334v-3.5zM5.5 34C.063 34 0 46.334 0 46.458c0 2.315 1.893 4.25 4.4 4.695v4.889c0 .529.493.958 1.1.958.607 0 1.1-.43 1.1-.958v-4.889c2.507-.445 4.4-2.38 4.4-4.695C11 46.334 10.937 34 5.5 34zm0 15.333c-1.82 0-3.3-1.29-3.3-2.875 0-4.774 1.472-10.541 3.3-10.541 1.828 0 3.3 5.767 3.3 10.541 0 1.585-1.48 2.875-3.3 2.875z"/>
        <path d="M11.833 29H7.167C6.523 29 6 29.392 6 29.875v1.75c0 .483.523.875 1.167.875s1.166-.392 1.166-.875v-.875h2.334v4.375c0 .483.522.875 1.166.875.644 0 1.167-.392 1.167-.875v-5.25c0-.483-.523-.875-1.167-.875z"/>
        <path fill-rule="nonzero" d="M61.167 25h4.666c.644 0 1.167-.392 1.167-.875v-5.25c0-.483-.523-.875-1.167-.875h-4.666c-.644 0-1.167.392-1.167.875v5.25c0 .483.523.875 1.167.875zm1.166-5.25h2.334v3.5h-2.334v-3.5zM11.833 18H7.167C6.523 18 6 18.392 6 18.875v5.25c0 .483.523.875 1.167.875h4.666c.644 0 1.167-.392 1.167-.875v-5.25c0-.483-.523-.875-1.167-.875zm-1.166 5.25H8.333v-3.5h2.334v3.5zM41 24.125c0 .483.448.875 1 .875h4c.552 0 1-.392 1-.875v-5.25c0-.483-.448-.875-1-.875h-4c-.552 0-1 .392-1 .875v5.25zm2-4.375h2v3.5h-2v-3.5z"/>
        <path fill-rule="nonzero" d="M71.714 11H56.286c-.71 0-1.286.43-1.286.958 0 .53.576.959 1.286.959h14.143v38.51a4.979 4.979 0 0 0-1.286-.177c-.222 0-.444.014-.66.043-.888-1.191-2.576-1.96-4.483-1.96-1.907 0-3.595.769-4.482 1.96a5.042 5.042 0 0 0-.66-.043C56.73 51.25 55 52.54 55 54.125S56.73 57 58.857 57h10.286C71.269 57 73 55.71 73 54.125V11.958c0-.529-.576-.958-1.286-.958zm-2.571 44.083H58.857c-.708 0-1.286-.43-1.286-.958s.578-.958 1.286-.958c.247 0 .48.052.697.156.352.169.792.2 1.18.082.388-.117.675-.368.77-.671.27-.874 1.298-1.484 2.496-1.484s2.226.61 2.497 1.484c.094.303.38.554.769.671.387.117.828.087 1.18-.082.837-.403 1.983.09 1.983.802 0 .528-.578.958-1.286.958zM42 12h4c.552 0 1-.392 1-.875v-5.25C47 5.392 46.552 5 46 5h-4c-.552 0-1 .392-1 .875v5.25c0 .483.448.875 1 .875zm1-5.25h2v3.5h-2v-3.5zM41 35.125c0 .483.448.875 1 .875h4c.552 0 1-.392 1-.875v-5.25c0-.483-.448-.875-1-.875h-4c-.552 0-1 .392-1 .875v5.25zm2-4.375h2v3.5h-2v-3.5zM28.167 12h4.666c.644 0 1.167-.392 1.167-.875v-5.25C34 5.392 33.477 5 32.833 5h-4.666C27.523 5 27 5.392 27 5.875v5.25c0 .483.523.875 1.167.875zm1.166-5.25h2.334v3.5h-2.334v-3.5z"/>
        <path d="M37.29 45.28c-.18.19-.29.452-.29.714 0 .261.11.523.29.714.19.181.45.292.71.292.26 0 .52-.11.71-.292.18-.191.29-.453.29-.714 0-.262-.11-.523-.29-.715a1.042 1.042 0 0 0-1.42 0z"/>
        <path fill-rule="nonzero" d="M27 35.125c0 .483.523.875 1.167.875h4.666c.644 0 1.167-.392 1.167-.875v-5.25c0-.483-.523-.875-1.167-.875h-4.666c-.644 0-1.167.392-1.167.875v5.25zm2.333-4.375h2.334v3.5h-2.334v-3.5z"/>
        <path d="M24 40.917c0 .506.538.916 1.2.916h3.6v8.25c0 .506.538.917 1.2.917.662 0 1.2-.41 1.2-.917v-8.25h9.6v8.25c0 .506.538.917 1.2.917.662 0 1.2-.41 1.2-.917v-8.25h3.6c.662 0 1.2-.41 1.2-.916S47.462 40 46.8 40H25.2c-.662 0-1.2.41-1.2.917z"/>
        <path fill-rule="nonzero" d="M60 35.125c0 .483.523.875 1.167.875h4.666c.644 0 1.167-.392 1.167-.875v-5.25c0-.483-.523-.875-1.167-.875h-4.666c-.644 0-1.167.392-1.167.875v5.25zm2.333-4.375h2.334v3.5h-2.334v-3.5z"/>
        <path d="M52.786 0H21.214C20.544 0 20 .423 20 .944v49.112c0 .52.544.944 1.214.944.67 0 1.214-.423 1.214-.944V1.889h29.144v48.167c0 .52.544.944 1.214.944.67 0 1.214-.423 1.214-.944V.944C54 .424 53.456 0 52.786 0z"/>
    </g>
</svg>
