<svg xmlns="http://www.w3.org/2000/svg" width="57" height="71" viewBox="0 0 57 71">
    <g fill="#F6A501" fill-rule="evenodd">
        <path fill-rule="nonzero" d="M14.159 46.651a4.555 4.555 0 0 0 3.285-1.396 4.734 4.734 0 0 0 1.186-2.153l2.44 2.502A4.554 4.554 0 0 0 24.355 47a4.552 4.552 0 0 0 3.284-1.396A4.793 4.793 0 0 0 29 42.235c0-1.273-.483-2.47-1.361-3.37l-2.096-2.15a4.574 4.574 0 0 0 2.096-1.219A4.796 4.796 0 0 0 29 32.126c0-1.272-.483-2.469-1.361-3.368l-2.919-2.994a4.57 4.57 0 0 0 2.098-1.218 4.79 4.79 0 0 0 1.36-3.369 4.79 4.79 0 0 0-1.36-3.369L18.582 9.36V1.191C18.582.534 18.062 0 17.42 0c-.64 0-1.161.534-1.161 1.191v6.337c-1.683-.672-3.73-.333-5.044 1.014-1.441 1.48-1.715 3.69-.86 5.47a4.481 4.481 0 0 0-2.425 1.27c-1.431 1.469-1.712 3.657-.88 5.43a4.576 4.576 0 0 0-2.405 1.307c-1.43 1.47-1.713 3.658-.88 5.432a4.572 4.572 0 0 0-2.404 1.307A4.793 4.793 0 0 0 0 32.127c0 1.273.483 2.469 1.361 3.37l9.514 9.758a4.553 4.553 0 0 0 3.284 1.396zm-1.302-36.424a2.282 2.282 0 0 1 3.286 0l.456.468 8.577 8.798c.439.45.68 1.048.68 1.684 0 .636-.241 1.234-.68 1.685-.878.899-2.408.899-3.285 0l-9.034-9.266a2.431 2.431 0 0 1 0-3.37zm-3.285 6.74a2.28 2.28 0 0 1 3.285 0l13.14 13.475c.439.45.68 1.049.68 1.685 0 .637-.241 1.235-.68 1.685-.877.9-2.408.9-3.285 0l-5.11-5.241-6.387-6.552-.002-.002-1.641-1.682a2.43 2.43 0 0 1 0-3.369zm-3.285 6.737A2.282 2.282 0 0 1 9.57 23.7l6.39 6.554 10.037 10.296c.439.449.68 1.047.68 1.684 0 .636-.241 1.234-.68 1.685-.877.899-2.408.899-3.285 0l-5.265-5.4-.003-.004-4.757-4.879-6.399-6.564a2.43 2.43 0 0 1 0-3.37zm-3.965 8.423c0-.636.242-1.234.681-1.685a2.282 2.282 0 0 1 3.284 0l.67.688 8.849 9.076c.901.929.901 2.437-.004 3.365-.877.9-2.407.9-3.285 0l-9.514-9.759a2.399 2.399 0 0 1-.68-1.685z"/>
        <path d="M52.5 29.808c0 .658.559 1.192 1.25 1.192.69 0 1.25-.534 1.25-1.192 0-8.618-3.771-13.698-6.025-16.732-.658-.886-1.475-1.988-1.475-2.345V1.192C47.5.534 46.94 0 46.25 0 45.559 0 45 .534 45 1.192v9.539c0 1.116.811 2.21 1.936 3.723 2.215 2.985 5.564 7.494 5.564 15.354zM18 66c-.552 0-1 .56-1 1.25v2.5c0 .69.448 1.25 1 1.25s1-.56 1-1.25v-2.5c0-.69-.448-1.25-1-1.25zM49.293 31.361c-2.812-1.837-11.645-6.856-12.085-7.103-.798-.39-1.685-.337-2.496.155-1.748 1.059-2.82 3.963-2.82 5.58 0 2.25 1.611 3.619 3.318 5.067a33.386 33.386 0 0 1 1.814 1.62l5.979 5.858c.395.389.77.755.82.865.023.066.025.316.025.56-.282.741-2.49 3.215-4.392 5.08L26.267 60.796c-.348.335-1.082.832-1.55.832h-10.76c-1.32 0-2.392-1.05-2.392-2.343s1.073-2.344 2.392-2.344h8.37c1.642 0 3.077-1.36 3.236-1.515l8.37-8.201a1.156 1.156 0 0 0 0-1.657 1.212 1.212 0 0 0-1.691 0l-8.366 8.198c-.348.336-1.082.832-1.55.832H10.37c-1.32 0-2.392-1.05-2.392-2.343 0-1.292 1.073-2.343 2.392-2.343h9.565c.66 0 1.196-.525 1.196-1.172 0-.647-.536-1.172-1.196-1.172H6.783c-1.32 0-2.392-1.05-2.392-2.343 0-.579.217-1.133.609-1.562.441-.482.4-1.223-.092-1.655a1.212 1.212 0 0 0-1.688.091A4.622 4.622 0 0 0 2 45.224c0 2.416 1.88 4.387 4.28 4.637a4.562 4.562 0 0 0-.693 2.393c0 2.416 1.88 4.387 4.28 4.637a4.562 4.562 0 0 0-.693 2.393c0 2.584 2.145 4.686 4.782 4.686h10.761c1.643 0 3.078-1.36 3.196-1.476l13.193-11.755c5.133-5.03 5.133-6.277 5.133-6.687 0-1.554-.195-1.847-1.546-3.171l-5.978-5.859c-.67-.658-1.345-1.229-1.94-1.734-1.638-1.39-2.492-2.168-2.492-3.295 0-1.479 1.286-3.64 1.79-3.673.092.051 9.143 5.193 11.894 6.99 3.092 2.02 6.642 5.2 6.642 11.914 0 5.029-4.036 11.846-6.705 16.357-1.909 3.223-2.826 4.82-2.826 5.904v2.343c0 .647.536 1.172 1.196 1.172.66 0 1.195-.525 1.195-1.172v-2.33c.05-.595 1.353-2.798 2.503-4.74C52.937 57.746 57 50.884 57 45.224c0-7.913-4.399-11.701-7.707-13.863z"/>
    </g>
</svg>
