<svg xmlns="http://www.w3.org/2000/svg" width="66" height="66" viewBox="0 0 66 66">
    <g fill="#F6A501" fill-rule="evenodd">
        <path d="M37.9 41a4.07 4.07 0 0 0-2.9 1.201l1.45 1.45c.775-.775 2.124-.775 2.898 0 .388.387.602.902.602 1.45 0 .547-.214 1.062-.602 1.45L40.798 48A4.07 4.07 0 0 0 42 45.1a4.072 4.072 0 0 0-1.202-2.899A4.07 4.07 0 0 0 37.9 41zM6.201 47.169A4.103 4.103 0 0 0 5 50.084c0 1.101.426 2.137 1.201 2.916l1.45-1.458c-.387-.39-.6-.907-.6-1.458 0-.55.213-1.068.6-1.457.775-.78 2.124-.78 2.9 0L12 47.169c-1.548-1.559-4.25-1.559-5.799 0zM23.201 50.169A4.103 4.103 0 0 0 22 53.084c0 1.101.426 2.137 1.201 2.916l1.45-1.458c-.387-.39-.6-.907-.6-1.458 0-.55.213-1.068.6-1.457.775-.78 2.124-.78 2.9 0L29 50.169c-1.548-1.559-4.25-1.559-5.799 0zM25.201 36.169A4.104 4.104 0 0 0 24 39.084c0 1.101.426 2.138 1.201 2.916l1.45-1.458c-.387-.39-.6-.907-.6-1.458 0-.55.213-1.068.6-1.457.775-.78 2.124-.78 2.9 0L31 36.169c-1.548-1.559-4.25-1.559-5.799 0zM38.348 29.627c.388.39.602.907.602 1.457 0 .551-.214 1.069-.602 1.458L39.798 34A4.106 4.106 0 0 0 41 31.084a4.104 4.104 0 0 0-1.202-2.915c-1.548-1.559-4.25-1.559-5.798 0l1.45 1.458c.775-.78 2.124-.78 2.898 0zM54 46.169l1.45 1.458c.775-.78 2.124-.78 2.898 0 .388.39.602.907.602 1.457 0 .551-.214 1.069-.602 1.458L59.798 52A4.106 4.106 0 0 0 61 49.084a4.104 4.104 0 0 0-1.202-2.915c-1.548-1.559-4.25-1.559-5.798 0z"/>
        <path fill-rule="nonzero" d="M3.063 16.494a3.086 3.086 0 0 0-.953 2.226c0 1.386.929 2.551 2.2 2.955C4.737 24.126 6.895 26 9.5 26c2.604 0 4.762-1.874 5.187-4.325 1.272-.404 2.202-1.569 2.202-2.955 0-.876-.37-1.665-.962-2.232.22-.345.46-.677.733-.986A9.259 9.259 0 0 0 19 9.359c0-2.658-1.154-5.2-3.165-6.974A9.63 9.63 0 0 0 8.42.058C4.25.513.759 3.796.115 7.866A9.294 9.294 0 0 0 2.3 15.46c.286.325.535.674.763 1.034zm6.436 7.426a3.16 3.16 0 0 1-2.973-2.08h5.945a3.157 3.157 0 0 1-2.972 2.08zm4.223-4.16H5.277a1.048 1.048 0 0 1-1.056-1.04c0-.574.473-1.04 1.056-1.04h8.445c.582 0 1.055.466 1.055 1.04 0 .574-.473 1.04-1.055 1.04zM8.444 9.36c0-.575.472-1.04 1.055-1.04s1.056.465 1.056 1.04c0 .573-.473 1.04-1.056 1.04a1.048 1.048 0 0 1-1.055-1.04zM2.203 8.185C2.7 5.027 5.413 2.48 8.65 2.126c2.13-.235 4.189.41 5.776 1.808a7.245 7.245 0 0 1 2.462 5.425c0 1.756-.646 3.451-1.818 4.774-.41.462-.756.97-1.072 1.495-.093-.009-.182-.028-.277-.028h-3.167v-3.312c1.225-.43 2.111-1.575 2.111-2.929 0-1.72-1.42-3.12-3.167-3.12-1.746 0-3.167 1.4-3.167 3.12 0 1.354.886 2.498 2.112 2.929V15.6H5.277c-.1 0-.193.02-.29.029A10.511 10.511 0 0 0 3.9 14.102c-1.438-1.641-2.04-3.741-1.697-5.916zM66 11.336l-5.323-6.653-1.064 1.33V0H44.709v28.844a13.819 13.819 0 0 0-11.71-6.49c-5.053 0-9.468 2.731-11.885 6.785a11.69 11.69 0 0 0-3.019-.397c-6.278 0-11.402 4.968-11.683 11.177-3.15 1.09-5.584 3.82-6.23 7.138-.556 2.868.172 5.785 2 8.002a9.56 9.56 0 0 0 7.397 3.49h13.776c1.03 0 2 .5 2.599 1.336l2.812 3.936A5.214 5.214 0 0 0 33 66a5.214 5.214 0 0 0 4.232-2.179l2.813-3.936a3.202 3.202 0 0 1 2.598-1.337h13.485c5.2 0 9.527-3.929 9.853-8.945.013-.213.01-.423.01-.635H66V11.336zm-6.387 7.825V39.95a9.57 9.57 0 0 0-1.47-.395 11.614 11.614 0 0 0-.66-1.83v-24.95h2.13v4.258h2.129v-4.258h2.129v30.187c-.15-.184-.297-.37-.461-.544a9.525 9.525 0 0 0-1.668-1.402V19.16h-2.13zm3.108-8.516h-4.088l2.044-2.554 2.044 2.554zM57.484 2.13v6.546l-2.13 2.661v23.231c-2.159-2.285-5.205-3.696-8.516-3.696v-3.194h4.258v-2.129h-4.258V23.42h6.387V21.29h-6.387v-2.129h4.258v-2.129h-4.258v-2.129h6.387v-2.129h-6.387v-2.129h4.258V8.516h-4.258V6.387h6.387V4.258h-6.387V2.13h10.646zm6.37 47.337c-.253 3.9-3.647 6.953-7.727 6.953H42.642a5.33 5.33 0 0 0-4.33 2.23l-2.813 3.935a3.08 3.08 0 0 1-2.5 1.287 3.08 3.08 0 0 1-2.5-1.287l-2.814-3.935a5.33 5.33 0 0 0-4.33-2.23H9.579a7.432 7.432 0 0 1-5.753-2.715c-1.423-1.725-1.988-4-1.553-6.242.565-2.905 2.896-5.235 5.8-5.799 2.242-.432 4.517.131 6.242 1.552a7.43 7.43 0 0 1 2.716 5.753h2.129a9.556 9.556 0 0 0-3.49-7.395c-1.985-1.638-4.535-2.384-7.103-2.124.504-4.814 4.583-8.578 9.528-8.578.694 0 1.379.082 2.048.228a13.75 13.75 0 0 0-.983 5.095c0 1.985.411 3.902 1.223 5.697l1.94-.878a11.628 11.628 0 0 1-1.034-4.82c0-6.456 5.253-11.71 11.71-11.71a11.7 11.7 0 0 1 11.08 7.95l.291.857.891-.149A9.696 9.696 0 0 1 46.838 33c4.1 0 7.71 2.634 9.036 6.415-5.03.285-9.036 4.454-9.036 9.553h2.13c0-4.108 3.343-7.452 7.451-7.452 2.082 0 4.014.837 5.438 2.357a7.397 7.397 0 0 1 1.997 5.593z"/>
    </g>
</svg>
