<svg xmlns="http://www.w3.org/2000/svg" width="21" height="21" viewBox="0 0 21 21">
    <defs>
        <linearGradient id="a" x1="50%" x2="50%" y1="0%" y2="100%">
            <stop offset="0%" stop-color="#A73991"/>
            <stop offset="51.498%" stop-color="#E51E49"/>
            <stop offset="100%" stop-color="#EE8930"/>
        </linearGradient>
    </defs>
    <path fill="url(#a)" fill-rule="nonzero" d="M16.059 0H4.94C2.224 0 0 2.224 0 4.941V16.06C0 18.776 2.224 21 4.941 21H16.06C18.776 21 21 18.776 21 16.059V4.94C21 2.224 18.776 0 16.059 0zm3.707 16.059a3.71 3.71 0 0 1-3.705 3.705H4.94a3.71 3.71 0 0 1-3.705-3.705V8.646H5.2a5.796 5.796 0 0 0-.564 2.471 5.873 5.873 0 0 0 5.867 5.867 5.873 5.873 0 0 0 5.867-5.867c0-.885-.212-1.716-.563-2.47h3.962v7.412h-.002zm-4.633-4.942A4.638 4.638 0 0 1 10.5 15.75a4.638 4.638 0 0 1-4.633-4.633A4.638 4.638 0 0 1 10.5 6.484a4.638 4.638 0 0 1 4.633 4.633zm-.122-3.705C13.935 6.102 12.324 5.25 10.5 5.25c-1.824 0-3.435.853-4.51 2.162H1.233v-2.47A3.71 3.71 0 0 1 4.94 1.235h11.117a3.71 3.71 0 0 1 3.705 3.705v2.471h-4.75zm2.843-4.05v1.603c0 .369-.302.67-.668.67h-1.691a.675.675 0 0 1-.673-.67V3.362c0-.368.302-.67.673-.67h1.69c.37 0 .67.302.67.67z"/>
</svg>
