<svg xmlns="http://www.w3.org/2000/svg" width="72" height="60" viewBox="0 0 72 60">
    <g fill="#F6A501" fill-rule="evenodd">
        <path d="M25.104 40c-.35 0-1.34-.9-1.995-1.497C21.138 36.71 18.159 34 13.035 34 8.046 34 7 35.087 7 36c0 .552.54 1 1.207 1 .487 0 .909-.24 1.098-.585.238-.109 1.14-.415 3.73-.415 4.057 0 6.404 2.135 8.288 3.85 1.32 1.201 2.364 2.15 3.78 2.15h15.69c.668 0 1.207-.448 1.207-1s-.54-1-1.207-1h-15.69zM27.983 7.91c.135.198.517.944.517 3.09 0 3.362-2.669 5.306-4.814 6.868C22.186 18.962 21 19.826 21 21v13c0 .552.559 1 1.25 1s1.25-.448 1.25-1V21c0-.29 1.125-1.11 1.87-1.653C27.613 17.714 31 15.247 31 11c0-4.132-1.36-5-2.5-5-.691 0-1.25.448-1.25 1 0 .404.3.753.733.91z"/>
        <path d="M0 19c0 .552.549 1 1.227 1h5.957c.102.38.18.731.18 1v10c0 .552.548 1 1.227 1s1.227-.448 1.227-1V21c0-1.05-.508-2.386-1.097-3.933C8.085 15.395 7.364 13.5 7.364 12V3c0-.551.55-1 1.227-1s1.227.449 1.227 1c0 .552.549 1 1.227 1 .68 0 1.228-.448 1.228-1 0-.551.55-1 1.227-1s1.227.449 1.227 1c0 .552.549 1 1.227 1 .679 0 1.228-.448 1.228-1 0-.551.55-1 1.227-1s1.227.449 1.227 1c0 .552.549 1 1.227 1 .679 0 1.228-.448 1.228-1 0-.551.55-1 1.227-1 .678 0 1.228.449 1.228 1v8c0 .552.548 1 1.227 1C26.45 12 27 11.552 27 11V3c0-1.654-1.652-3-3.682-3-.942 0-1.803.29-2.454.766C20.212.29 19.352 0 18.409 0c-.942 0-1.803.29-2.454.766C15.303.29 14.443 0 13.5 0c-.942 0-1.803.29-2.454.766C10.394.29 9.534 0 8.59 0 6.56 0 4.909 1.346 4.909 3v3H1.227C.55 6 0 6.448 0 7s.549 1 1.227 1H4.91v4c0 1.803.78 3.852 1.468 5.66l.129.34H1.227C.55 18 0 18.448 0 19zM48.891 21.497C50.862 23.29 53.841 26 58.965 26 63.954 26 65 24.913 65 24c0-.552-.54-1-1.207-1-.487 0-.909.24-1.098.585-.238.109-1.14.415-3.73.415-4.057 0-6.404-2.135-8.288-3.85-1.32-1.201-2.363-2.15-3.78-2.15h-15.69c-.668 0-1.207.448-1.207 1s.54 1 1.207 1h15.69c.35 0 1.34.9 1.994 1.497zM37.781 52H25.594c-1.281 0-2.91.414-4.794.894-2.036.518-4.347 1.106-6.175 1.106H3.656c-.672 0-1.218-.449-1.218-1 0-.551.546-1 1.218-1 .674 0 1.219-.448 1.219-1s-.545-1-1.219-1c-.672 0-1.218-.449-1.218-1 0-.55.546-1 1.218-1 .674 0 1.219-.448 1.219-1s-.545-1-1.219-1c-.672 0-1.218-.449-1.218-1 0-.551.546-1 1.218-1 .674 0 1.219-.448 1.219-1s-.545-1-1.219-1c-.672 0-1.218-.45-1.218-1 0-.551.546-1 1.218-1h9.75c.674 0 1.22-.448 1.22-1s-.546-1-1.22-1h-9.75C1.64 38 0 39.346 0 41c0 .768.353 1.469.934 2-.58.53-.934 1.232-.934 2s.353 1.469.934 2C.354 47.53 0 48.232 0 49s.353 1.469.934 2C.354 51.53 0 52.232 0 53c0 1.654 1.64 3 3.656 3h3.657v3c0 .552.544 1 1.218 1 .674 0 1.219-.448 1.219-1v-3h4.875c2.198 0 4.695-.635 6.897-1.196l.416-.104V59c0 .552.544 1 1.218 1 .674 0 1.22-.448 1.22-1v-4.854c.463-.084.89-.146 1.218-.146H37.78c.674 0 1.219-.448 1.219-1s-.545-1-1.219-1z"/>
        <path d="M71.067 9c.58-.53.933-1.232.933-2 0-1.654-1.64-3-3.656-3h-3.657V1c0-.552-.544-1-1.218-1-.674 0-1.219.448-1.219 1v3h-4.875c-2.198 0-4.695.635-6.897 1.196l-.416.104V1c0-.552-.544-1-1.218-1-.674 0-1.22.448-1.22 1v4.854c-.463.084-.89.146-1.218.146H34.22C33.545 6 33 6.448 33 7s.545 1 1.219 1h12.187c1.281 0 2.91-.414 4.794-.894C53.236 6.588 55.547 6 57.375 6h10.969c.672 0 1.218.45 1.218 1 0 .551-.546 1-1.218 1-.674 0-1.219.448-1.219 1s.545 1 1.219 1c.672 0 1.218.45 1.218 1 0 .551-.546 1-1.218 1-.674 0-1.219.448-1.219 1s.545 1 1.219 1c.672 0 1.218.449 1.218 1 0 .551-.546 1-1.218 1-.674 0-1.219.448-1.219 1s.545 1 1.219 1c.672 0 1.218.449 1.218 1 0 .551-.546 1-1.218 1h-9.75c-.674 0-1.22.448-1.22 1s.546 1 1.22 1h9.75C70.36 22 72 20.654 72 19c0-.768-.353-1.47-.933-2 .58-.53.933-1.232.933-2s-.353-1.469-.933-2c.58-.53.933-1.232.933-2s-.353-1.469-.933-2zM44.017 52.09c-.135-.198-.517-.944-.517-3.09 0-3.362 2.669-5.306 4.814-6.868C49.815 41.038 51 40.174 51 39V26c0-.552-.559-1-1.25-1s-1.25.448-1.25 1v13c0 .29-1.125 1.11-1.87 1.653C44.387 42.286 41 44.753 41 49c0 4.132 1.36 5 2.5 5 .691 0 1.25-.448 1.25-1 0-.404-.3-.753-.733-.91z"/>
        <path d="M72 41c0-.552-.549-1-1.227-1h-5.958c-.102-.38-.179-.731-.179-1V29c0-.552-.549-1-1.227-1-.679 0-1.228.448-1.228 1v10c0 1.05.509 2.386 1.098 3.933.635 1.672 1.357 3.567 1.357 5.067v9c0 .551-.55 1-1.227 1-.678 0-1.227-.449-1.227-1 0-.552-.549-1-1.228-1-.678 0-1.227.448-1.227 1 0 .551-.55 1-1.227 1-.678 0-1.227-.449-1.227-1 0-.552-.549-1-1.228-1-.678 0-1.227.448-1.227 1 0 .551-.55 1-1.227 1-.678 0-1.227-.449-1.227-1 0-.552-.549-1-1.228-1-.678 0-1.227.448-1.227 1 0 .551-.55 1-1.227 1-.678 0-1.227-.449-1.227-1v-8c0-.552-.549-1-1.228-1-.678 0-1.227.448-1.227 1v8c0 1.654 1.652 3 3.682 3 .943 0 1.803-.29 2.455-.766.65.476 1.51.766 2.453.766.943 0 1.803-.29 2.455-.766.652.476 1.512.766 2.455.766.942 0 1.802-.29 2.454-.766.652.476 1.512.766 2.455.766 2.03 0 3.682-1.346 3.682-3v-3h3.682C71.45 54 72 53.552 72 53s-.549-1-1.227-1H67.09v-4c0-1.803-.78-3.852-1.468-5.66l-.129-.34h5.279C71.45 42 72 41.552 72 41z"/>
    </g>
</svg>
