<svg xmlns="http://www.w3.org/2000/svg" width="25" height="19" viewBox="0 0 25 19">
    <path fill="#FF001D" fill-rule="nonzero" d="M7.278.081c-2.479.085-4.004.211-4.56.38C1.467.841.696 1.861.364 3.573-.058 5.75-.125 11.703.24 14.705c.232 1.907.854 3.079 1.931 3.61 1.028.515 3.424.675 10.288.683 4.65 0 8.007-.101 9.242-.295 1.8-.287 2.76-1.544 3.06-3.998.364-3.002.298-8.956-.125-11.132-.323-1.704-1.061-2.69-2.313-3.104C21.154.081 13.246-.12 7.278.081zM13.437 7.2c2.039 1.24 3.705 2.285 3.705 2.319 0 .034-1.666 1.08-3.705 2.32a548.674 548.674 0 0 0-3.896 2.386l-.19.118V4.695l.19.118c.1.067 1.848 1.138 3.896 2.387z"/>
</svg>
